<?xml version="1.0" encoding="UTF-8" standalone="no"?>
<!-- Created with Inkscape (http://www.inkscape.org/) -->

<svg
   version="1.1"
   id="svg2"
   width="6832"
   height="1248"
   viewBox="0 0 6832 1248"
   sodipodi:docname="Level1_L1_2.0.svg"
   inkscape:version="1.2.2 (732a01da63, 2022-12-09)"
   xmlns:inkscape="http://www.inkscape.org/namespaces/inkscape"
   xmlns:sodipodi="http://sodipodi.sourceforge.net/DTD/sodipodi-0.dtd"
   xmlns:xlink="http://www.w3.org/1999/xlink"
   xmlns="http://www.w3.org/2000/svg"
   xmlns:svg="http://www.w3.org/2000/svg">
  <defs
     id="defs6" />
  <sodipodi:namedview
     id="namedview4"
     pagecolor="#ffffff"
     bordercolor="#000000"
     borderopacity="0.25"
     inkscape:showpageshadow="2"
     inkscape:pageopacity="0.0"
     inkscape:pagecheckerboard="0"
     inkscape:deskcolor="#d1d1d1"
     showgrid="false"
     inkscape:zoom="0.5"
     inkscape:cx="3861"
     inkscape:cy="268"
     inkscape:window-width="2560"
     inkscape:window-height="1334"
     inkscape:window-x="-11"
     inkscape:window-y="-11"
     inkscape:window-maximized="1"
     inkscape:current-layer="g8" />
  <g
     inkscape:groupmode="layer"
     inkscape:label="Image"
     id="g8"
     style="display:inline">
    <image
       width="6832"
       height="1248"
       preserveAspectRatio="none"
       xlink:href="Level1_L1.png"
       id="image10"
       style="display:inline" />
    <path
       style="fill:#000000"
       d="m 0,800.23635 h 640.35143 v -31.99909 h 63.7581 v -31.73999 h 47.15655 v 31.86954 h 64.25963 v 31.99805 h 224.75619 v -63.98705 h 47.3147 v 63.84964 h 176.8003 v -16.16853 h 48.0476 v -15.48147 h 63.2542 v 15.61888 h 96.0492 v 47.86433 L 0,832.06066 Z"
       id="path170" />
    <path
       style="fill:#000000"
       d="m 864.36408,736.23817 h 126.95995 v 15.28701 l -126.99591,-0.25 z"
       id="path174"
       sodipodi:nodetypes="ccccc" />
    <path
       style="fill:#000000"
       d="m 1152.25,736.125 h 79.25 v 15.5 h -79 z"
       id="path503" />
    <path
       style="fill:#000000"
       d="m 1504.375,768.25 h 255.9673 v -31.97507 h 31.9524 v -31.99658 h 31.3779 v 96.07814 H 1984.375 V 768.1875 h 175 V 800 h 97.375 v -79.6875 h 79.5625 v -224 h 143.375 V 592.25 H 2543.5 V 624 h -111.375 v -16 h 31.75 v -48 h -31.75 V 527.875 H 2351.5 V 831.75 h -847.625 z"
       id="path505" />
    <path
       style="fill:#000000"
       d="m 1536.0127,624.02173 h 127.456 v 47.37616 h -127.2792 z"
       id="path507" />
    <path
       style="fill:#000000"
       d="M 1856.0669,623.84496 H 2032.5 V 399.5 h 47 v 31.75 h -16 V 592.5 H 2319 v 47.25 H 2047.25 V 672 H 1887.5 v 80 h -32 z"
       id="path509" />
    <path
       style="fill:#000000"
       d="m 2080.25,496.5 h 31.25 V 512 h -31.25 z"
       id="path511" />
    <path
       style="fill:#000000"
       d="m 2720.1514,592.20193 h 447.687 v 63.81638 H 2864.136 v 160.69002 h 47.0226 v 30.75914 h -47.7297 V 1024.625 H 3136.25 V 911.25 H 3008.125 V 896.5 h 159.625 v 159 H 2863.875 V 1168 H 2799.5 v -48.75 h -352.0267 v 97.1504 h 80.2567 v 31.6431 h -95.6362 v -208.0662 h 400.0456 V 623.84496 h -111.5461 z"
       id="path515" />
    <path
       style="fill:#000000"
       d="m 3184.1018,416.13234 h 47.7297 v 624.02176 h 31.8198 v 63.6396 h -143.8962 v -15.2028 h 79.5495 V 847.46747 h -206.8287 v 113.49064 h 127.2792 v 14.84924 H 2959.949 V 848.17458 h -32.5269 v -32.17336 h 32.5269 v -31.8198 h -63.9932 v -16.26346 h 304.0559 v -96.52007 h -15.9099 z"
       id="path517" />
    <path
       style="fill:#000000"
       d="m 2560.5,1216.75 h 111.25 v 31 h -111.625 z"
       id="path519" />
    <path
       style="fill:#000000"
       d="m 2704.3299,1216.4004 h 319.0819 v 16.2635 h 49.1439 v -16.4402 H 3184.625 V 1184.25 h 127.625 v -32.125 h 32.375 v -32 h 47.125 v 96.125 H 4207.5 V 1248 H 2704.25 Z"
       id="path521" />
    <path
       style="fill:#000000"
       d="M 3487.75,1040 H 3552 v 112.5 h -64 z"
       id="path523" />
    <path
       style="fill:#000000"
       d="m 3839.5,1039.5 h 225 v -15 h 351.25 v 47.25 h -303.5 v 48 h -272.5 v -16 H 3888 v -48 h -48.25 z"
       id="path525"
       sodipodi:nodetypes="ccccccccccccc" />
    <path
       style="fill:#000000"
       d="m 4400.3255,943.634 h 95.1058 v 32.88046 h 48.0833 v 62.93254 h -79.196 v 208.5965 h -176.4231 v -32.5269 h 64.3467 v -31.8199 h 79.5495 V 958.83679 h -31.4662 z"
       id="path527" />
    <path
       style="fill:#000000"
       d="M 4671.5,976 H 4783 v 63.5 h -111.5 z"
       id="path529" />
    <path
       style="fill:#000000"
       d="M 4943.5,977.5 H 5024 V 832 h 16.5 v 208 H 4943 Z"
       id="path531" />
    <path
       style="fill:#000000"
       d="M 4272.5625,528.3125 H 4560 V 623 h -96.75 v 209.25 h 80 v 15.5 h -47.5 V 895.5 H 4432 v -47.75 h -352.5 v -63.5 H 4368 v -48.5 h -176 v -16 h 176 V 624 h -15.75 v -16.25 h 80 V 559.5 h -128.5 v 49 h 32 v 16 h -111.5 v -16.75 h -48 V 592 h 48.5 v -31.75 h 47.5 z"
       id="path556" />
    <path
       style="fill:#000000"
       d="m 4592.25,576.25 h 80.5 V 560 h 127.75 v -15.75 h 111.25 v 80 h -320 z"
       id="path558" />
    <path
       style="fill:#000000"
       d="m 4944,576.25 h 63 v 48 h -63 z"
       id="path560" />
    <path
       style="fill:#000000"
       d="M 5136.25,496.25 H 5295.5 V 624.5 H 5136 Z"
       id="path562" />
    <path
       style="fill:#000000"
       d="m 5328,608.375 h 111.625 v 15.75 H 5328 Z"
       id="path564" />
    <path
       style="fill:#000000"
       d="M 5488.125,608.125 H 5600.25 V 576.25 h 143.625 v 48.125 H 5487.75 Z"
       id="path566" />
    <path
       style="fill:#000000"
       d="M 5792.375,576.5 H 5903.5 V 624 h -111.625 z"
       id="path568" />
    <path
       style="fill:#000000"
       d="m 5952,576.375 h 16 v 48 h -16.125 z"
       id="path570" />
    <path
       style="fill:#000000"
       d="m 5151.875,0.03125 h 16.3125 V 192.25 H 5296.5 v -48.5 h 31.5 v 64 h -176.5 z"
       id="path572" />
    <path
       style="fill:#000000"
       d="m 5440.126,144.42656 h 63.9932 v 63.55122 h -64.2584 z"
       id="path574" />
    <path
       style="fill:#000000"
       d="m 5536.1158,112.16481 h 15.9982 v 96.07814 h -16.0866 z"
       id="path576" />
    <path
       style="fill:#000000"
       d="m 5584.125,80.25 h 112 v 15.875 h -31.875 v 240.10427 h 79.9319 v 15.90991 h -80.9637 v 48.08326 H 5968.375 V 272.05933 h 48.043 V 432.3958 h -609.1725 v 79.90306 h -47.3761 v -97.22718 h 287.7924 V 207.53584 h -63.6396 z"
       id="path578" />
    <path
       style="fill:#000000"
       d="m 5791.5581,95.812969 h 63.6396 v 32.880461 h 64.7003 v 31.1127 h 64.7002 v 16.61701 h 223.4458 v -64.70027 h 80.2566 v 33.58757 h 47.3761 v 31.81981 h 496.7425 v 30.05204 h -785.242 v 417.193 h -15.2028 V 223.44574 h -160.1597 v 48.43682 h -48.4368 v 31.8198 h 48.476 l 0.25,48.54764 h -80.2289 z"
       id="path580"
       sodipodi:nodetypes="ccccccccccccccccccccccccccc" />
  </g>
</svg>
